# Blender v2.93.3 OBJ File: ''
# www.blender.org
mtllib lilhouse.mtl
o house_Cube
v 0.751821 1.245317 -0.751821
v 1.000000 -1.000000 -1.000000
v 0.751821 1.245317 0.751821
v 1.000000 -1.000000 1.000000
v -0.751821 1.245317 -0.751821
v -1.000000 -1.000000 -1.000000
v -0.751821 1.245317 0.751821
v -1.000000 -1.000000 1.000000
v 0.000000 -1.000000 -1.000000
v 0.000000 2.602267 1.000000
v 0.000000 -1.000000 1.000000
v 0.000000 2.602267 -1.000000
v 1.000000 0.563191 -1.000000
v -1.000000 0.563191 1.000000
v 1.000000 0.563191 1.000000
v -1.000000 0.563191 -1.000000
v 0.000000 1.493242 -1.000000
v 0.000000 1.493242 1.000000
vt 0.750000 0.500000
vt 0.875000 0.500000
vt 0.875000 0.750000
vt 0.750000 0.750000
vt 0.520115 0.875000
vt 0.625000 0.875000
vt 0.625000 1.000000
vt 0.520115 1.000000
vt 0.520115 0.000000
vt 0.625000 0.000000
vt 0.625000 0.250000
vt 0.520115 0.250000
vt 0.250000 0.500000
vt 0.375000 0.500000
vt 0.375000 0.750000
vt 0.250000 0.750000
vt 0.520115 0.500000
vt 0.625000 0.500000
vt 0.625000 0.750000
vt 0.520115 0.750000
vt 0.520115 0.375000
vt 0.625000 0.375000
vt 0.125000 0.500000
vt 0.125000 0.750000
vt 0.375000 0.875000
vt 0.375000 0.250000
vt 0.375000 0.375000
vt 0.375000 0.000000
vt 0.375000 1.000000
vn -0.8747 0.4846 0.0000
vn -0.3606 0.1769 0.9158
vn -0.9397 0.3419 0.0000
vn 0.0000 -1.0000 0.0000
vn 0.9397 0.3419 0.0000
vn 0.3606 0.1769 -0.9158
vn -0.3606 0.1769 -0.9158
vn 0.3606 0.1769 0.9158
vn 0.8747 0.4846 0.0000
vn 0.0000 0.0000 1.0000
vn 0.0000 0.0000 -1.0000
vn 1.0000 0.0000 0.0000
vn -1.0000 0.0000 0.0000
usemtl Material
s off
f 12/1/1 5/2/1 7/3/1 10/4/1
f 18/5/2 10/6/2 7/7/2 14/8/2
f 14/9/3 7/10/3 5/11/3 16/12/3
f 9/13/4 2/14/4 4/15/4 11/16/4
f 13/17/5 1/18/5 3/19/5 15/20/5
f 17/21/6 12/22/6 1/18/6 13/17/6
f 16/12/7 5/11/7 12/22/7 17/21/7
f 6/23/4 9/13/4 11/16/4 8/24/4
f 15/20/8 3/19/8 10/6/8 18/5/8
f 1/18/9 12/1/9 10/4/9 3/19/9
f 4/15/10 15/20/10 18/5/10 11/25/10
f 6/26/11 16/12/11 17/21/11 9/27/11
f 9/27/11 17/21/11 13/17/11 2/14/11
f 2/14/12 13/17/12 15/20/12 4/15/12
f 8/28/13 14/9/13 16/12/13 6/26/13
f 11/25/10 18/5/10 14/8/10 8/29/10
